<?xml version="1.0" standalone="no"?>
<!DOCTYPE svg PUBLIC "-//W3C//DTD SVG 20010904//EN"
 "http://www.w3.org/TR/2001/REC-SVG-20010904/DTD/svg10.dtd">
<svg version="1.0" xmlns="http://www.w3.org/2000/svg"
 width="351.000000pt" height="351.000000pt" viewBox="0 0 351.000000 351.000000"
 preserveAspectRatio="xMidYMid meet">
<metadata>
Created by potrace 1.10, written by Peter Selinger 2001-2011
</metadata>
<g transform="translate(0.000000,351.000000) scale(0.100000,-0.100000)"
fill="#c30000" stroke="none">
<path d="M1271 3285 c-30 -7 -67 -23 -82 -34 -16 -12 -32 -21 -38 -21 -19 0
-69 -76 -90 -138 -18 -53 -21 -85 -21 -217 l0 -155 -360 0 c-305 0 -370 -3
-423 -17 -34 -9 -71 -25 -83 -35 -11 -10 -26 -18 -32 -18 -16 0 -59 -67 -83
-129 -19 -50 -19 -82 -19 -1099 0 -576 4 -1063 9 -1082 18 -79 77 -153 155
-193 l61 -32 1470 -3 1470 -3 68 22 c80 26 145 82 180 156 l22 48 0 1085 0
1085 -27 52 c-30 56 -99 119 -157 142 -29 12 -112 15 -423 18 l-386 4 -4 177
c-4 149 -7 183 -24 218 -34 71 -99 131 -179 166 -45 19 -928 22 -1004 3z m919
-284 c15 -28 13 -254 -2 -269 -17 -17 -839 -17 -856 0 -15 15 -17 241 -2 269
10 18 26 19 430 19 404 0 420 -1 430 -19z m-1559 -1101 c17 -10 19 -22 19
-125 0 -62 4 -116 9 -119 5 -3 19 22 32 57 12 34 28 71 36 82 7 11 13 29 13
40 0 11 11 33 25 48 25 26 30 27 121 27 114 0 222 -27 274 -68 59 -48 89 -100
90 -157 1 -27 5 -59 10 -70 7 -18 9 -16 15 12 4 18 14 38 21 44 8 6 14 19 14
29 0 23 106 133 150 156 39 20 153 53 187 53 13 1 53 -9 90 -21 52 -17 79 -34
115 -69 52 -52 58 -49 58 26 0 34 5 47 19 55 23 12 640 14 657 2 20 -14 44
-57 44 -80 0 -13 6 -36 14 -50 8 -15 35 -94 61 -177 26 -82 53 -166 60 -185 7
-19 16 -43 19 -53 8 -24 26 -12 26 16 -1 21 110 371 137 434 7 17 13 37 13 44
0 7 10 23 22 36 21 22 27 23 188 23 116 0 170 -4 178 -12 17 -17 15 -48 -8
-93 -11 -22 -20 -45 -20 -52 0 -7 -4 -21 -10 -31 -5 -9 -26 -57 -46 -107 -19
-49 -42 -104 -50 -122 -8 -17 -14 -36 -14 -41 0 -6 -6 -23 -14 -39 -17 -34
-25 -52 -71 -168 -19 -49 -42 -102 -50 -117 -8 -14 -15 -34 -15 -45 0 -10 -7
-27 -15 -37 -8 -11 -15 -27 -15 -35 -1 -9 -9 -26 -19 -38 -19 -22 -24 -23
-209 -23 -211 0 -204 -2 -236 75 -10 22 -24 53 -32 68 -8 16 -14 33 -14 39 0
5 -6 24 -14 41 -8 18 -29 68 -46 112 -17 44 -37 93 -45 108 -8 16 -15 33 -15
39 0 5 -6 24 -14 41 -39 87 -56 126 -71 175 -30 91 -40 61 -43 -129 -3 -220
-4 -219 51 -219 24 0 52 -6 63 -14 18 -14 18 -16 2 -44 -10 -17 -18 -37 -18
-45 0 -9 -7 -28 -15 -44 -8 -15 -20 -43 -27 -62 -7 -18 -24 -56 -38 -85 l-25
-51 -170 0 -170 0 -5 117 c-5 117 -13 149 -25 106 -3 -13 -10 -32 -15 -43 -41
-93 -50 -116 -50 -127 -1 -7 -9 -23 -20 -36 -18 -22 -25 -23 -107 -19 -48 2
-108 10 -133 17 -57 17 -148 71 -185 110 -31 33 -55 39 -55 14 0 -21 -47 -119
-64 -133 -9 -8 -65 -11 -172 -9 l-159 3 -5 255 c-3 173 -9 262 -17 276 -26 45
-62 58 -158 59 l-90 0 -5 -295 -5 -295 -159 -3 c-108 -2 -163 1 -172 9 -11 9
-14 66 -14 294 0 318 6 295 -81 295 -44 0 -49 2 -49 23 0 12 7 31 15 41 8 11
15 28 15 37 0 10 6 30 14 46 8 15 22 46 31 68 9 22 20 48 25 57 6 10 10 23 10
30 0 6 10 22 22 35 21 22 28 23 165 23 80 0 153 -5 164 -10z"/>
<path d="M1672 1554 c-55 -24 -81 -62 -82 -117 0 -59 27 -103 76 -123 21 -9
71 -14 133 -14 100 0 101 0 107 26 12 47 -2 150 -25 182 -39 55 -138 77 -209
46z"/>
</g>
</svg>
