<svg xmlns="http://www.w3.org/2000/svg" version="1.1" width="1000" height="1000" viewBox="0 0 1000 1000" xml:space="preserve">
<desc>Created with Fabric.js 3.5.0</desc>
<defs>
</defs>
<rect x="0" y="0" width="100%" height="100%" fill="rgba(255,255,255,0)"/>
<g transform="matrix(9.7295 0 0 6.2052 500.001 584.2282)" id="446310">
<path style="stroke: none; stroke-width: 1; stroke-dasharray: none; stroke-linecap: butt; stroke-dashoffset: 0; stroke-linejoin: miter; stroke-miterlimit: 4; is-custom-font: none; font-file-url: none; fill: rgb(255,255,255); fill-rule: nonzero; opacity: 1;" vector-effect="non-scaling-stroke" transform=" translate(-43.5, -25)" d="M 87 0 H 0 V 50 H 87 V 0 Z" stroke-linecap="round"/>
</g>
<g transform="matrix(1.9425 0 0 1.9425 499.9995 499.9995)" id="16084">
<g style="">
		<g transform="matrix(0.1333 0 0 -0.1333 0.2761 6.8242)">
<path style="stroke: none; stroke-width: 1; stroke-dasharray: none; stroke-linecap: butt; stroke-dashoffset: 0; stroke-linejoin: miter; stroke-miterlimit: 4; is-custom-font: none; font-file-url: none; fill: rgb(195,0,0); fill-rule: nonzero; opacity: 1;" transform=" translate(-1757.5, -1703.4192)" d="M 1271 3285 c -30 -7 -67 -23 -82 -34 c -16 -12 -32 -21 -38 -21 c -19 0 -69 -76 -90 -138 c -18 -53 -21 -85 -21 -217 l 0 -155 l -360 0 c -305 0 -370 -3 -423 -17 c -34 -9 -71 -25 -83 -35 c -11 -10 -26 -18 -32 -18 c -16 0 -59 -67 -83 -129 c -19 -50 -19 -82 -19 -1099 c 0 -576 4 -1063 9 -1082 c 18 -79 77 -153 155 -193 l 61 -32 l 1470 -3 l 1470 -3 l 68 22 c 80 26 145 82 180 156 l 22 48 l 0 1085 l 0 1085 l -27 52 c -30 56 -99 119 -157 142 c -29 12 -112 15 -423 18 l -386 4 l -4 177 c -4 149 -7 183 -24 218 c -34 71 -99 131 -179 166 c -45 19 -928 22 -1004 3 z m 919 -284 c 15 -28 13 -254 -2 -269 c -17 -17 -839 -17 -856 0 c -15 15 -17 241 -2 269 c 10 18 26 19 430 19 c 404 0 420 -1 430 -19 z m -1559 -1101 c 17 -10 19 -22 19 -125 c 0 -62 4 -116 9 -119 c 5 -3 19 22 32 57 c 12 34 28 71 36 82 c 7 11 13 29 13 40 c 0 11 11 33 25 48 c 25 26 30 27 121 27 c 114 0 222 -27 274 -68 c 59 -48 89 -100 90 -157 c 1 -27 5 -59 10 -70 c 7 -18 9 -16 15 12 c 4 18 14 38 21 44 c 8 6 14 19 14 29 c 0 23 106 133 150 156 c 39 20 153 53 187 53 c 13 1 53 -9 90 -21 c 52 -17 79 -34 115 -69 c 52 -52 58 -49 58 26 c 0 34 5 47 19 55 c 23 12 640 14 657 2 c 20 -14 44 -57 44 -80 c 0 -13 6 -36 14 -50 c 8 -15 35 -94 61 -177 c 26 -82 53 -166 60 -185 c 7 -19 16 -43 19 -53 c 8 -24 26 -12 26 16 c -1 21 110 371 137 434 c 7 17 13 37 13 44 c 0 7 10 23 22 36 c 21 22 27 23 188 23 c 116 0 170 -4 178 -12 c 17 -17 15 -48 -8 -93 c -11 -22 -20 -45 -20 -52 c 0 -7 -4 -21 -10 -31 c -5 -9 -26 -57 -46 -107 c -19 -49 -42 -104 -50 -122 c -8 -17 -14 -36 -14 -41 c 0 -6 -6 -23 -14 -39 c -17 -34 -25 -52 -71 -168 c -19 -49 -42 -102 -50 -117 c -8 -14 -15 -34 -15 -45 c 0 -10 -7 -27 -15 -37 c -8 -11 -15 -27 -15 -35 c -1 -9 -9 -26 -19 -38 c -19 -22 -24 -23 -209 -23 c -211 0 -204 -2 -236 75 c -10 22 -24 53 -32 68 c -8 16 -14 33 -14 39 c 0 5 -6 24 -14 41 c -8 18 -29 68 -46 112 c -17 44 -37 93 -45 108 c -8 16 -15 33 -15 39 c 0 5 -6 24 -14 41 c -39 87 -56 126 -71 175 c -30 91 -40 61 -43 -129 c -3 -220 -4 -219 51 -219 c 24 0 52 -6 63 -14 c 18 -14 18 -16 2 -44 c -10 -17 -18 -37 -18 -45 c 0 -9 -7 -28 -15 -44 c -8 -15 -20 -43 -27 -62 c -7 -18 -24 -56 -38 -85 l -25 -51 l -170 0 l -170 0 l -5 117 c -5 117 -13 149 -25 106 c -3 -13 -10 -32 -15 -43 c -41 -93 -50 -116 -50 -127 c -1 -7 -9 -23 -20 -36 c -18 -22 -25 -23 -107 -19 c -48 2 -108 10 -133 17 c -57 17 -148 71 -185 110 c -31 33 -55 39 -55 14 c 0 -21 -47 -119 -64 -133 c -9 -8 -65 -11 -172 -9 l -159 3 l -5 255 c -3 173 -9 262 -17 276 c -26 45 -62 58 -158 59 l -90 0 l -5 -295 l -5 -295 l -159 -3 c -108 -2 -163 1 -172 9 c -11 9 -14 66 -14 294 c 0 318 6 295 -81 295 c -44 0 -49 2 -49 23 c 0 12 7 31 15 41 c 8 11 15 28 15 37 c 0 10 6 30 14 46 c 8 15 22 46 31 68 c 9 22 20 48 25 57 c 6 10 10 23 10 30 c 0 6 10 22 22 35 c 21 22 28 23 165 23 c 80 0 153 -5 164 -10 z" stroke-linecap="round"/>
</g>
		<g transform="matrix(0.1333 0 0 -0.1333 -0.646 42.7858)">
<path style="stroke: none; stroke-width: 1; stroke-dasharray: none; stroke-linecap: butt; stroke-dashoffset: 0; stroke-linejoin: miter; stroke-miterlimit: 4; is-custom-font: none; font-file-url: none; fill: rgb(195,0,0); fill-rule: nonzero; opacity: 1;" transform=" translate(-1750.1954, -1434.073)" d="M 1672 1554 c -55 -24 -81 -62 -82 -117 c 0 -59 27 -103 76 -123 c 21 -9 71 -14 133 -14 c 100 0 101 0 107 26 c 12 47 -2 150 -25 182 c -39 55 -138 77 -209 46 z" stroke-linecap="round"/>
</g>
</g>
</g>
</svg>